# xmcd
#
# Track frame offsets:
#	150
#	16312
#	31930
#	47700
#	59670
#	75125
#	87295
#	109307
#	124735
#	143237
#	158187
#	170800
#
# Disc length: 2466 seconds
#
# Revision: 0
# Processed by: cddbd v1.5.2PL0 Copyright (c) Steve Scherf et al.
# Submitted via: EasyCDDAExtractor 4.5.2.1
#
DISCID=9a09a00c
DTITLE=Vários - Os Melhores Conjuntos Gaúchos Vol. 04
DYEAR=1995
DGENRE=Gauchesco
TTITLE0=Aragana
TTITLE1=Gauchinha do Paraná
TTITLE2=KM 11
TTITLE3=Querência xucra
TTITLE4=Vento minuano
TTITLE5=Gaúcho do sistema antigo
TTITLE6=Bailes o candeeiro
TTITLE7=Jeito de guria
TTITLE8=Cruzada
TTITLE9=Bombacha cor-de-rosa
TTITLE10=Gaitaço tchê
TTITLE11=Ambicioso
EXTD=
EXTT0=
EXTT1=
EXTT2=
EXTT3=
EXTT4=
EXTT5=
EXTT6=
EXTT7=
EXTT8=
EXTT9=
EXTT10=
EXTT11=
PLAYORDER=
